<svg xmlns="http://www.w3.org/2000/svg" width="80" height="80" viewBox="0 0 80 80">
  <g id="그룹_50" data-name="그룹 50" transform="translate(-0.5)">
    <rect id="사각형_17" data-name="사각형 17" width="80" height="80" rx="16" transform="translate(0.5)" fill="#fff"/>
    <g id="그룹_21" data-name="그룹 21" transform="translate(13.949 13.947)">
      <g id="그룹_20" data-name="그룹 20">
        <path id="패스_307" data-name="패스 307" d="M199.035,513.83a6.754,6.754,0,0,0,0,13.334,6.753,6.753,0,0,0,0-13.334Z" transform="translate(-172.985 -494.442)" fill="none"/>
        <path id="패스_308" data-name="패스 308" d="M203.787,514.086a9.5,9.5,0,0,1-4.963,2.648c-.361.065-.728.111-1.084.144-.257.05-.509.113-.757.184a9.6,9.6,0,0,1,6.669,6.671c.071-.254.131-.507.183-.764a10.226,10.226,0,0,1,.137-1.081,9.62,9.62,0,0,1,10.229-7.741l-.03,0a9.567,9.567,0,0,1-4.959-2.643,9.7,9.7,0,0,1-2.647-4.936A9.554,9.554,0,0,1,203.787,514.086Z" transform="translate(-170.933 -497.674)" fill="#72626a"/>
        <path id="패스_309" data-name="패스 309" d="M185.1,525.08c-.084-.009-.166-.016-.25-.028Z" transform="translate(-176.328 -489.45)" fill="#73be1e"/>
        <path id="패스_310" data-name="패스 310" d="M203.629,506.7c-.012-.146-.025-.29-.042-.433.014.134.03.27.036.409A.086.086,0,0,1,203.629,506.7Z" transform="translate(-167.995 -497.808)" fill="#73be1e"/>
        <path id="패스_311" data-name="패스 311" d="M211.868,509.3a.086.086,0,0,0-.006-.025c-.006-.139-.022-.274-.036-.409-.023-.175-.045-.351-.077-.523-.009-.053-.014-.1-.025-.155s-.029-.124-.043-.186c-.042-.195-.087-.39-.14-.581-.035-.113-.068-.227-.105-.337-.053-.157-.107-.314-.166-.468-.039-.107-.078-.214-.124-.322-.084-.2-.178-.4-.276-.6-.043-.081-.085-.163-.127-.243-.113-.208-.234-.415-.364-.614-.053-.085-.113-.168-.169-.249-.113-.165-.231-.325-.353-.483l-.178-.224c-.189-.223-.381-.442-.591-.652a9.613,9.613,0,0,0-13.609,0c-.2.2-.393.417-.574.636-.074.09-.145.181-.217.27-.108.139-.212.282-.311.423-.065.1-.133.192-.2.288-.133.207-.257.418-.373.63l-.084.163c-.116.223-.221.452-.316.683-.032.077-.062.155-.094.231-.072.2-.14.392-.205.589-.026.079-.048.159-.071.24-.062.212-.113.429-.158.644-.012.053-.029.1-.038.157-.009.036-.012.074-.02.107-.042.234-.075.465-.1.7-.006.071-.014.142-.02.215,0,.023,0,.042,0,.065a9.664,9.664,0,0,1-2.644,4.96,9.541,9.541,0,0,1-4.962,2.643.087.087,0,0,1-.029,0,9.614,9.614,0,0,1,10.222,7.752,8.578,8.578,0,0,1,.152,1.072c.048.254.11.506.181.755a9.611,9.611,0,0,1,6.665-6.662c.249-.071.5-.133.757-.184.355-.033.722-.079,1.084-.145a9.62,9.62,0,0,0,7.743-10.17Z" transform="translate(-176.234 -500.411)" fill="#73be1e"/>
        <path id="패스_312" data-name="패스 312" d="M191.414,533.469c-.065-.1-.126-.211-.188-.319C191.288,533.258,191.349,533.365,191.414,533.469Z" transform="translate(-173.494 -485.848)" fill="#72626a"/>
        <path id="패스_313" data-name="패스 313" d="M192.443,534.712c-.2-.2-.379-.4-.553-.614C192.065,534.309,192.248,534.515,192.443,534.712Z" transform="translate(-173.198 -485.426)" fill="#72626a"/>
        <path id="패스_314" data-name="패스 314" d="M190.615,531.78c-.045-.166-.084-.332-.124-.5C190.531,531.448,190.57,531.614,190.615,531.78Z" transform="translate(-173.821 -486.681)" fill="#72626a"/>
        <path id="패스_315" data-name="패스 315" d="M190.458,531.173c-.038-.205-.065-.412-.088-.62C190.39,530.758,190.421,530.968,190.458,531.173Z" transform="translate(-173.875 -487.003)" fill="#72626a"/>
        <path id="패스_316" data-name="패스 316" d="M190.808,532.316c-.056-.153-.11-.3-.16-.461C190.7,532.011,190.752,532.163,190.808,532.316Z" transform="translate(-173.751 -486.424)" fill="#72626a"/>
        <path id="패스_317" data-name="패스 317" d="M191.051,532.843c-.068-.142-.134-.285-.2-.429C190.917,532.558,190.984,532.7,191.051,532.843Z" transform="translate(-173.659 -486.175)" fill="#72626a"/>
        <path id="패스_318" data-name="패스 318" d="M191.767,533.954c-.077-.1-.152-.205-.225-.309C191.616,533.749,191.691,533.853,191.767,533.954Z" transform="translate(-173.353 -485.627)" fill="#72626a"/>
        <path id="패스_319" data-name="패스 319" d="M184.852,511.841c.105-.009.207-.023.308-.03C185.059,511.818,184.957,511.83,184.852,511.841Z" transform="translate(-176.329 -495.34)" fill="#72626a"/>
        <path id="패스_320" data-name="패스 320" d="M200.8,525.61a9.557,9.557,0,0,1-2.458-4.21c-.071-.25-.133-.5-.181-.756a8.581,8.581,0,0,0-.152-1.072,9.614,9.614,0,0,0-10.222-7.752c-.1.007-.2.022-.308.03-.244.029-.493.059-.744.107-.277.053-.553.124-.826.2l-.2.062q-.316.1-.627.22c-.068.026-.134.051-.2.079a9.118,9.118,0,0,0-1.521.8c-.068.042-.136.09-.2.134-.181.121-.355.251-.527.387-.068.053-.133.1-.2.158-.225.189-.451.387-.66.6a9.625,9.625,0,0,0,0,13.6c.207.207.423.4.644.585l.246.194c.149.117.3.227.454.334.091.062.181.124.272.183q.295.191.6.356c.072.039.149.08.228.118.208.107.418.207.634.3l.275.107c.183.071.367.133.549.192.085.029.171.054.254.08.269.077.536.143.808.2.251.043.5.079.748.108.084.012.166.019.25.028l.082.009a9.514,9.514,0,0,1,4.962,2.638,9.68,9.68,0,0,1,2.644,4.967c0,.016,0,.03,0,.048a9.606,9.606,0,0,1,7.734-10.244,7.446,7.446,0,0,1,1.092-.146c.251-.052.506-.114.756-.181A9.542,9.542,0,0,1,200.8,525.61Z" transform="translate(-178.953 -495.35)" fill="#72626a"/>
        <path id="패스_321" data-name="패스 321" d="M191.975,534.2c-.1-.113-.186-.23-.277-.345C191.789,533.975,191.879,534.092,191.975,534.2Z" transform="translate(-173.284 -485.532)" fill="#1c2d91"/>
        <path id="패스_322" data-name="패스 322" d="M191.625,533.767c-.09-.13-.184-.26-.269-.4C191.441,533.507,191.531,533.637,191.625,533.767Z" transform="translate(-173.436 -485.749)" fill="#1c2d91"/>
        <path id="패스_323" data-name="패스 323" d="M208.9,511.812c.1.006.2.017.29.029C209.1,511.829,209,511.818,208.9,511.812Z" transform="translate(-165.631 -495.34)" fill="#1c2d91"/>
        <path id="패스_324" data-name="패스 324" d="M190.9,532.521c-.052-.116-.094-.231-.139-.347C190.8,532.29,190.846,532.405,190.9,532.521Z" transform="translate(-173.702 -486.282)" fill="#1c2d91"/>
        <path id="패스_325" data-name="패스 325" d="M190.68,531.957c-.035-.11-.071-.22-.1-.332C190.609,531.738,190.645,531.847,190.68,531.957Z" transform="translate(-173.782 -486.526)" fill="#1c2d91"/>
        <path id="패스_326" data-name="패스 326" d="M190.378,530.632c-.012-.085-.02-.169-.027-.257C190.358,530.463,190.367,530.547,190.378,530.632Z" transform="translate(-173.883 -487.082)" fill="#1c2d91"/>
        <path id="패스_327" data-name="패스 327" d="M191.331,533.345c-.121-.208-.234-.42-.34-.634C191.1,532.925,191.209,533.137,191.331,533.345Z" transform="translate(-173.598 -486.043)" fill="#1c2d91"/>
        <path id="패스_328" data-name="패스 328" d="M190.431,530.982c.025.144.056.286.087.426-.016-.089-.042-.178-.059-.267C190.447,531.087,190.443,531.037,190.431,530.982Z" transform="translate(-173.847 -486.812)" fill="#1c2d91"/>
        <path id="패스_329" data-name="패스 329" d="M223.179,514.6c-.217-.217-.439-.418-.67-.607-.053-.045-.108-.084-.162-.129-.194-.156-.394-.3-.6-.441-.039-.029-.081-.056-.124-.085a9.415,9.415,0,0,0-1.591-.838c-.032-.011-.062-.022-.091-.033-.253-.1-.507-.189-.764-.269l-.1-.027c-.285-.085-.569-.159-.86-.215-.251-.048-.509-.081-.766-.107-.1-.012-.194-.023-.29-.029a9.62,9.62,0,0,0-10.229,7.741,10.234,10.234,0,0,0-.137,1.081c-.052.257-.113.51-.183.764a9.613,9.613,0,0,1-6.669,6.664c-.25.066-.5.129-.756.181a7.445,7.445,0,0,0-1.092.146,9.606,9.606,0,0,0-7.734,10.244c.007.088.016.172.027.257.023.208.051.415.088.62.012.055.016.106.027.159.017.09.043.178.059.267.04.171.079.337.124.5.032.113.068.222.1.332.051.156.1.308.16.461.045.116.087.231.139.347.062.144.129.287.2.429.105.214.218.426.34.634.062.108.123.215.188.319.085.136.179.266.269.4.074.1.149.208.225.309s.181.233.277.345c.175.211.355.418.553.614a9.62,9.62,0,0,0,13.609,0c.2-.2.387-.415.568-.628.085-.1.16-.2.237-.3.094-.121.184-.243.27-.367s.168-.237.244-.358.137-.228.2-.344c.133-.23.254-.461.367-.7.051-.107.1-.217.149-.327.062-.142.117-.283.17-.426.042-.116.084-.234.121-.35.045-.139.09-.277.13-.419s.075-.3.11-.454c.022-.1.051-.192.068-.288.01-.059.019-.118.03-.178.032-.186.056-.37.079-.556.012-.1.022-.2.03-.3,0-.017,0-.035.006-.053a9.626,9.626,0,0,1,7.6-7.606l.081-.009.238-.025c.256-.032.516-.065.767-.111.279-.054.553-.123.826-.2l.189-.059c.211-.065.418-.139.624-.218.072-.027.149-.056.222-.087.246-.1.491-.215.731-.338.022-.012.045-.023.068-.038.237-.124.468-.264.7-.412.082-.051.158-.107.237-.16.166-.113.331-.234.491-.358.074-.059.15-.119.222-.178.224-.187.444-.382.652-.591A9.622,9.622,0,0,0,223.179,514.6Z" transform="translate(-173.893 -495.35)" fill="#1c2d91"/>
      </g>
      <path id="패스_330" data-name="패스 330" d="M212.185,516.94a3.773,3.773,0,1,1-5.339,0A3.764,3.764,0,0,1,212.185,516.94Z" transform="translate(-167.036 -493.55)" fill="#fff"/>
    </g>
  </g>
</svg>
